{
    "asset" : {
        "generator" : "Khronos glTF Blender I/O v1.8.19",
        "version" : "2.0"
    },
    "extensionsUsed" : [
        "KHR_materials_transmission"
    ],
    "scene" : 0,
    "scenes" : [
        {
            "name" : "Scene",
            "nodes" : [
                0
            ]
        }
    ],
    "nodes" : [
        {
            "mesh" : 0,
            "name" : "Circle.003"
        }
    ],
    "materials" : [
        {
            "doubleSided" : true,
            "name" : "Candle",
            "pbrMetallicRoughness" : {
                "baseColorFactor" : [
                    0.9071433544158936,
                    0.9071433544158936,
                    0.9071433544158936,
                    1
                ],
                "metallicFactor" : 0,
                "roughnessFactor" : 0.5
            }
        },
        {
            "alphaMode" : "BLEND",
            "doubleSided" : true,
            "extensions" : {
                "KHR_materials_transmission" : {
                    "transmissionFactor" : 1
                }
            },
            "name" : "Glass",
            "pbrMetallicRoughness" : {
                "baseColorFactor" : [
                    1,
                    1,
                    1,
                    0.5
                ],
                "metallicFactor" : 0.3385826349258423,
                "roughnessFactor" : 0.027272745966911316
            }
        }
    ],
    "meshes" : [
        {
            "name" : "Circle.006",
            "primitives" : [
                {
                    "attributes" : {
                        "POSITION" : 0,
                        "NORMAL" : 1,
                        "TEXCOORD_0" : 2
                    },
                    "indices" : 3,
                    "material" : 0
                },
                {
                    "attributes" : {
                        "POSITION" : 4,
                        "NORMAL" : 5,
                        "TEXCOORD_0" : 6
                    },
                    "indices" : 7,
                    "material" : 1
                }
            ]
        }
    ],
    "accessors" : [
        {
            "bufferView" : 0,
            "componentType" : 5126,
            "count" : 2339,
            "max" : [
                0.027433790266513824,
                0.08984355628490448,
                0.027433790266513824
            ],
            "min" : [
                -0.027433790266513824,
                0,
                -0.027433790266513824
            ],
            "type" : "VEC3"
        },
        {
            "bufferView" : 1,
            "componentType" : 5126,
            "count" : 2339,
            "type" : "VEC3"
        },
        {
            "bufferView" : 2,
            "componentType" : 5126,
            "count" : 2339,
            "type" : "VEC2"
        },
        {
            "bufferView" : 3,
            "componentType" : 5123,
            "count" : 11892,
            "type" : "SCALAR"
        },
        {
            "bufferView" : 4,
            "componentType" : 5126,
            "count" : 1104,
            "max" : [
                0.0036259591579437256,
                0.08937685191631317,
                0.00316927139647305
            ],
            "min" : [
                -0.0032851339783519506,
                0.08017954975366592,
                -0.003524513216689229
            ],
            "type" : "VEC3"
        },
        {
            "bufferView" : 5,
            "componentType" : 5126,
            "count" : 1104,
            "type" : "VEC3"
        },
        {
            "bufferView" : 6,
            "componentType" : 5126,
            "count" : 1104,
            "type" : "VEC2"
        },
        {
            "bufferView" : 7,
            "componentType" : 5123,
            "count" : 5952,
            "type" : "SCALAR"
        }
    ],
    "bufferViews" : [
        {
            "buffer" : 0,
            "byteLength" : 28068,
            "byteOffset" : 0
        },
        {
            "buffer" : 0,
            "byteLength" : 28068,
            "byteOffset" : 28068
        },
        {
            "buffer" : 0,
            "byteLength" : 18712,
            "byteOffset" : 56136
        },
        {
            "buffer" : 0,
            "byteLength" : 23784,
            "byteOffset" : 74848
        },
        {
            "buffer" : 0,
            "byteLength" : 13248,
            "byteOffset" : 98632
        },
        {
            "buffer" : 0,
            "byteLength" : 13248,
            "byteOffset" : 111880
        },
        {
            "buffer" : 0,
            "byteLength" : 8832,
            "byteOffset" : 125128
        },
        {
            "buffer" : 0,
            "byteLength" : 11904,
            "byteOffset" : 133960
        }
    ],
    "buffers" : [
        {
            "byteLength" : 145864,
            "uri" : "data:application/octet-stream;base64,"
        }
    ]
}
