{
    "asset" : {
        "generator" : "Khronos glTF Blender I/O v1.8.19",
        "version" : "2.0"
    },
    "extensionsUsed" : [
        "KHR_materials_clearcoat"
    ],
    "scene" : 0,
    "scenes" : [
        {
            "name" : "Scene",
            "nodes" : [
                0,
                1
            ]
        }
    ],
    "nodes" : [
        {
            "mesh" : 0,
            "name" : "Cube.035"
        },
        {
            "mesh" : 1,
            "name" : "Cube.036",
            "translation" : [
                0,
                0.10000000149011612,
                0
            ]
        }
    ],
    "materials" : [
        {
            "doubleSided" : true,
            "extensions" : {
                "KHR_materials_clearcoat" : {
                    "clearcoatFactor" : 2,
                    "clearcoatRoughnessFactor" : 0.029999999329447746
                }
            },
            "name" : "Granite Black_PBR",
            "pbrMetallicRoughness" : {
                "baseColorTexture" : {
                    "index" : 0
                },
                "metallicFactor" : 0,
                "roughnessFactor" : 0.07272729277610779
            }
        }
    ],
    "meshes" : [
        {
            "name" : "Cube.030",
            "primitives" : [
                {
                    "attributes" : {
                        "POSITION" : 0,
                        "NORMAL" : 1,
                        "TEXCOORD_0" : 2
                    },
                    "indices" : 3,
                    "material" : 0
                }
            ]
        },
        {
            "name" : "Cube.037",
            "primitives" : [
                {
                    "attributes" : {
                        "POSITION" : 4,
                        "NORMAL" : 5,
                        "TEXCOORD_0" : 6
                    },
                    "indices" : 7,
                    "material" : 0
                }
            ]
        }
    ],
    "textures" : [
        {
            "sampler" : 0,
            "source" : 0
        }
    ],
    "images" : [
        {
            "bufferView" : 4,
            "mimeType" : "image/jpeg",
            "name" : "DDD2927A-1133-4D70-BC40-29D41E631B01"
        }
    ],
    "accessors" : [
        {
            "bufferView" : 0,
            "componentType" : 5126,
            "count" : 211,
            "max" : [
                0.75,
                0.10000000149011612,
                0.10000000149011612
            ],
            "min" : [
                -0.75,
                0,
                -0.10000000149011612
            ],
            "type" : "VEC3"
        },
        {
            "bufferView" : 1,
            "componentType" : 5126,
            "count" : 211,
            "type" : "VEC3"
        },
        {
            "bufferView" : 2,
            "componentType" : 5126,
            "count" : 211,
            "type" : "VEC2"
        },
        {
            "bufferView" : 3,
            "componentType" : 5123,
            "count" : 564,
            "type" : "SCALAR"
        },
        {
            "bufferView" : 5,
            "componentType" : 5126,
            "count" : 492,
            "max" : [
                0.5,
                0.6000000238418579,
                0.03999999910593033
            ],
            "min" : [
                -0.5,
                0,
                -0.03999999910593033
            ],
            "type" : "VEC3"
        },
        {
            "bufferView" : 6,
            "componentType" : 5126,
            "count" : 492,
            "type" : "VEC3"
        },
        {
            "bufferView" : 7,
            "componentType" : 5126,
            "count" : 492,
            "type" : "VEC2"
        },
        {
            "bufferView" : 8,
            "componentType" : 5123,
            "count" : 1236,
            "type" : "SCALAR"
        }
    ],
    "bufferViews" : [
        {
            "buffer" : 0,
            "byteLength" : 2532,
            "byteOffset" : 0
        },
        {
            "buffer" : 0,
            "byteLength" : 2532,
            "byteOffset" : 2532
        },
        {
            "buffer" : 0,
            "byteLength" : 1688,
            "byteOffset" : 5064
        },
        {
            "buffer" : 0,
            "byteLength" : 1128,
            "byteOffset" : 6752
        },
        {
            "buffer" : 0,
            "byteLength" : 200460,
            "byteOffset" : 7880
        },
        {
            "buffer" : 0,
            "byteLength" : 5904,
            "byteOffset" : 208340
        },
        {
            "buffer" : 0,
            "byteLength" : 5904,
            "byteOffset" : 214244
        },
        {
            "buffer" : 0,
            "byteLength" : 3936,
            "byteOffset" : 220148
        },
        {
            "buffer" : 0,
            "byteLength" : 2472,
            "byteOffset" : 224084
        }
    ],
    "samplers" : [
        {
            "magFilter" : 9729,
            "minFilter" : 9987
        }
    ],
    "buffers" : [
        {
            "byteLength" : 226556,
            "uri" : "data:application/octet-stream;base64,"
        }
    ]
}
