{
    "asset" : {
        "generator" : "Khronos glTF Blender I/O v1.8.19",
        "version" : "2.0"
    },
    "extensionsUsed" : [
        "KHR_materials_clearcoat"
    ],
    "scene" : 0,
    "scenes" : [
        {
            "name" : "Scene",
            "nodes" : [
                0
            ]
        }
    ],
    "nodes" : [
        {
            "mesh" : 0,
            "name" : "Plane.003"
        }
    ],
    "materials" : [
        {
            "doubleSided" : true,
            "name" : "Granite White_PBR",
            "pbrMetallicRoughness" : {
                "baseColorTexture" : {
                    "index" : 0
                },
                "metallicFactor" : 0,
                "roughnessFactor" : 0.6000000238418579
            }
        },
        {
            "doubleSided" : true,
            "extensions" : {
                "KHR_materials_clearcoat" : {
                    "clearcoatFactor" : 2,
                    "clearcoatRoughnessFactor" : 0.029999999329447746
                }
            },
            "name" : "Granite Black_PBR",
            "pbrMetallicRoughness" : {
                "baseColorTexture" : {
                    "index" : 1
                },
                "metallicFactor" : 0,
                "roughnessFactor" : 0.07272729277610779
            }
        }
    ],
    "meshes" : [
        {
            "name" : "Plane.003",
            "primitives" : [
                {
                    "attributes" : {
                        "POSITION" : 0,
                        "NORMAL" : 1,
                        "TEXCOORD_0" : 2
                    },
                    "indices" : 3,
                    "material" : 0
                },
                {
                    "attributes" : {
                        "POSITION" : 4,
                        "NORMAL" : 5,
                        "TEXCOORD_0" : 6
                    },
                    "indices" : 7,
                    "material" : 1
                }
            ]
        }
    ],
    "textures" : [
        {
            "sampler" : 0,
            "source" : 0
        },
        {
            "sampler" : 0,
            "source" : 1
        }
    ],
    "images" : [
        {
            "bufferView" : 4,
            "mimeType" : "image/jpeg",
            "name" : "Image_1"
        },
        {
            "bufferView" : 9,
            "mimeType" : "image/jpeg",
            "name" : "Image_2"
        }
    ],
    "accessors" : [
        {
            "bufferView" : 0,
            "componentType" : 5126,
            "count" : 16823,
            "max" : [
                0.1819993108510971,
                1.057542085647583,
                0.03995629400014877
            ],
            "min" : [
                -0.2499709278345108,
                0.11294367909431458,
                -0.03559708595275879
            ],
            "type" : "VEC3"
        },
        {
            "bufferView" : 1,
            "componentType" : 5126,
            "count" : 16823,
            "type" : "VEC3"
        },
        {
            "bufferView" : 2,
            "componentType" : 5126,
            "count" : 16823,
            "type" : "VEC2"
        },
        {
            "bufferView" : 3,
            "componentType" : 5123,
            "count" : 85056,
            "type" : "SCALAR"
        },
        {
            "bufferView" : 5,
            "componentType" : 5126,
            "count" : 42271,
            "max" : [
                0.3997630476951599,
                1.0985380411148071,
                0.18114125728607178
            ],
            "min" : [
                -0.3997630774974823,
                1.7695282394925016e-07,
                -0.11885878443717957
            ],
            "type" : "VEC3"
        },
        {
            "bufferView" : 6,
            "componentType" : 5126,
            "count" : 42271,
            "type" : "VEC3"
        },
        {
            "bufferView" : 7,
            "componentType" : 5126,
            "count" : 42271,
            "type" : "VEC2"
        },
        {
            "bufferView" : 8,
            "componentType" : 5123,
            "count" : 241272,
            "type" : "SCALAR"
        }
    ],
    "bufferViews" : [
        {
            "buffer" : 0,
            "byteLength" : 201876,
            "byteOffset" : 0
        },
        {
            "buffer" : 0,
            "byteLength" : 201876,
            "byteOffset" : 201876
        },
        {
            "buffer" : 0,
            "byteLength" : 134584,
            "byteOffset" : 403752
        },
        {
            "buffer" : 0,
            "byteLength" : 170112,
            "byteOffset" : 538336
        },
        {
            "buffer" : 0,
            "byteLength" : 252083,
            "byteOffset" : 708448
        },
        {
            "buffer" : 0,
            "byteLength" : 507252,
            "byteOffset" : 960532
        },
        {
            "buffer" : 0,
            "byteLength" : 507252,
            "byteOffset" : 1467784
        },
        {
            "buffer" : 0,
            "byteLength" : 338168,
            "byteOffset" : 1975036
        },
        {
            "buffer" : 0,
            "byteLength" : 482544,
            "byteOffset" : 2313204
        },
        {
            "buffer" : 0,
            "byteLength" : 200460,
            "byteOffset" : 2795748
        }
    ],
    "samplers" : [
        {
            "magFilter" : 9729,
            "minFilter" : 9987
        }
    ],
    "buffers" : [
        {
            "byteLength" : 2996208,
            "uri" : "data:application/octet-stream;base64,"
        }
    ]
}
