{
    "asset" : {
        "generator" : "Khronos glTF Blender I/O v1.8.19",
        "version" : "2.0"
    },
    "extensionsUsed" : [
        "KHR_materials_clearcoat"
    ],
    "scene" : 0,
    "scenes" : [
        {
            "name" : "Scene",
            "nodes" : [
                0
            ]
        }
    ],
    "nodes" : [
        {
            "mesh" : 0,
            "name" : "Cube.037"
        }
    ],
    "materials" : [
        {
            "doubleSided" : true,
            "extensions" : {
                "KHR_materials_clearcoat" : {
                    "clearcoatFactor" : 2,
                    "clearcoatRoughnessFactor" : 0.029999999329447746
                }
            },
            "name" : "Granite Black_PBR",
            "pbrMetallicRoughness" : {
                "baseColorTexture" : {
                    "index" : 0
                },
                "metallicFactor" : 0,
                "roughnessFactor" : 0.07272729277610779
            }
        }
    ],
    "meshes" : [
        {
            "name" : "Cube.038",
            "primitives" : [
                {
                    "attributes" : {
                        "POSITION" : 0,
                        "NORMAL" : 1,
                        "TEXCOORD_0" : 2
                    },
                    "indices" : 3,
                    "material" : 0
                }
            ]
        }
    ],
    "textures" : [
        {
            "sampler" : 0,
            "source" : 0
        }
    ],
    "images" : [
        {
            "bufferView" : 4,
            "mimeType" : "image/jpeg",
            "name" : "DDD2927A-1133-4D70-BC40-29D41E631B01"
        }
    ],
    "accessors" : [
        {
            "bufferView" : 0,
            "componentType" : 5126,
            "count" : 4426,
            "max" : [
                0.25,
                0.1345605105161667,
                0.20000001788139343
            ],
            "min" : [
                -0.25,
                0,
                -0.20000001788139343
            ],
            "type" : "VEC3"
        },
        {
            "bufferView" : 1,
            "componentType" : 5126,
            "count" : 4426,
            "type" : "VEC3"
        },
        {
            "bufferView" : 2,
            "componentType" : 5126,
            "count" : 4426,
            "type" : "VEC2"
        },
        {
            "bufferView" : 3,
            "componentType" : 5123,
            "count" : 9582,
            "type" : "SCALAR"
        }
    ],
    "bufferViews" : [
        {
            "buffer" : 0,
            "byteLength" : 53112,
            "byteOffset" : 0
        },
        {
            "buffer" : 0,
            "byteLength" : 53112,
            "byteOffset" : 53112
        },
        {
            "buffer" : 0,
            "byteLength" : 35408,
            "byteOffset" : 106224
        },
        {
            "buffer" : 0,
            "byteLength" : 19164,
            "byteOffset" : 141632
        },
        {
            "buffer" : 0,
            "byteLength" : 200460,
            "byteOffset" : 160796
        }
    ],
    "samplers" : [
        {
            "magFilter" : 9729,
            "minFilter" : 9987
        }
    ],
    "buffers" : [
        {
            "byteLength" : 361256,
            "uri" : "data:application/octet-stream;base64,"
        }
    ]
}
