{
    "asset" : {
        "generator" : "Khronos glTF Blender I/O v1.8.19",
        "version" : "2.0"
    },
    "extensionsUsed" : [
        "KHR_materials_clearcoat"
    ],
    "scene" : 0,
    "scenes" : [
        {
            "name" : "Scene",
            "nodes" : [
                0,
                1
            ]
        }
    ],
    "nodes" : [
        {
            "mesh" : 0,
            "name" : "Cube.020"
        },
        {
            "mesh" : 1,
            "name" : "Cube.021",
            "translation" : [
                0,
                0.10000000149011612,
                0
            ]
        }
    ],
    "materials" : [
        {
            "doubleSided" : true,
            "extensions" : {
                "KHR_materials_clearcoat" : {
                    "clearcoatFactor" : 2,
                    "clearcoatRoughnessFactor" : 0.029999999329447746
                }
            },
            "name" : "Granite Black_PBR",
            "pbrMetallicRoughness" : {
                "baseColorTexture" : {
                    "index" : 0
                },
                "metallicFactor" : 0,
                "roughnessFactor" : 0.07272729277610779
            }
        },
        {
            "doubleSided" : true,
            "name" : "Granite White_PBR",
            "normalTexture" : {
                "index" : 1
            },
            "pbrMetallicRoughness" : {
                "baseColorTexture" : {
                    "index" : 2
                },
                "metallicFactor" : 0,
                "roughnessFactor" : 0.6000000238418579
            }
        }
    ],
    "meshes" : [
        {
            "name" : "Cube.022",
            "primitives" : [
                {
                    "attributes" : {
                        "POSITION" : 0,
                        "NORMAL" : 1,
                        "TEXCOORD_0" : 2
                    },
                    "indices" : 3,
                    "material" : 0
                }
            ]
        },
        {
            "name" : "Cube.023",
            "primitives" : [
                {
                    "attributes" : {
                        "POSITION" : 4,
                        "NORMAL" : 5,
                        "TEXCOORD_0" : 6
                    },
                    "indices" : 7,
                    "material" : 0
                },
                {
                    "attributes" : {
                        "POSITION" : 8,
                        "NORMAL" : 9,
                        "TEXCOORD_0" : 10
                    },
                    "indices" : 11,
                    "material" : 1
                }
            ]
        }
    ],
    "textures" : [
        {
            "sampler" : 0,
            "source" : 0
        },
        {
            "sampler" : 0,
            "source" : 1
        },
        {
            "sampler" : 0,
            "source" : 2
        }
    ],
    "images" : [
        {
            "bufferView" : 4,
            "mimeType" : "image/jpeg",
            "name" : "DDD2927A-1133-4D70-BC40-29D41E631B01"
        },
        {
            "bufferView" : 13,
            "mimeType" : "image/png",
            "name" : "TexturesCom_Stone_BaseSurface1_1K_normal"
        },
        {
            "bufferView" : 14,
            "mimeType" : "image/jpeg",
            "name" : "concrete light"
        }
    ],
    "accessors" : [
        {
            "bufferView" : 0,
            "componentType" : 5126,
            "count" : 215,
            "max" : [
                0.4000000059604645,
                0.10000000149011612,
                0.15000000596046448
            ],
            "min" : [
                -0.4000000059604645,
                0,
                -0.15000000596046448
            ],
            "type" : "VEC3"
        },
        {
            "bufferView" : 1,
            "componentType" : 5126,
            "count" : 215,
            "type" : "VEC3"
        },
        {
            "bufferView" : 2,
            "componentType" : 5126,
            "count" : 215,
            "type" : "VEC2"
        },
        {
            "bufferView" : 3,
            "componentType" : 5123,
            "count" : 564,
            "type" : "SCALAR"
        },
        {
            "bufferView" : 5,
            "componentType" : 5126,
            "count" : 3158,
            "max" : [
                0.25,
                0.994594395160675,
                0.04000000283122063
            ],
            "min" : [
                -0.2290022373199463,
                0,
                -0.03999998793005943
            ],
            "type" : "VEC3"
        },
        {
            "bufferView" : 6,
            "componentType" : 5126,
            "count" : 3158,
            "type" : "VEC3"
        },
        {
            "bufferView" : 7,
            "componentType" : 5126,
            "count" : 3158,
            "type" : "VEC2"
        },
        {
            "bufferView" : 8,
            "componentType" : 5123,
            "count" : 8427,
            "type" : "SCALAR"
        },
        {
            "bufferView" : 9,
            "componentType" : 5126,
            "count" : 861,
            "max" : [
                0.1905556321144104,
                0.9940357208251953,
                0.039881687611341476
            ],
            "min" : [
                -0.22862191498279572,
                0.07558269798755646,
                0
            ],
            "type" : "VEC3"
        },
        {
            "bufferView" : 10,
            "componentType" : 5126,
            "count" : 861,
            "type" : "VEC3"
        },
        {
            "bufferView" : 11,
            "componentType" : 5126,
            "count" : 861,
            "type" : "VEC2"
        },
        {
            "bufferView" : 12,
            "componentType" : 5123,
            "count" : 2025,
            "type" : "SCALAR"
        }
    ],
    "bufferViews" : [
        {
            "buffer" : 0,
            "byteLength" : 2580,
            "byteOffset" : 0
        },
        {
            "buffer" : 0,
            "byteLength" : 2580,
            "byteOffset" : 2580
        },
        {
            "buffer" : 0,
            "byteLength" : 1720,
            "byteOffset" : 5160
        },
        {
            "buffer" : 0,
            "byteLength" : 1128,
            "byteOffset" : 6880
        },
        {
            "buffer" : 0,
            "byteLength" : 200460,
            "byteOffset" : 8008
        },
        {
            "buffer" : 0,
            "byteLength" : 37896,
            "byteOffset" : 208468
        },
        {
            "buffer" : 0,
            "byteLength" : 37896,
            "byteOffset" : 246364
        },
        {
            "buffer" : 0,
            "byteLength" : 25264,
            "byteOffset" : 284260
        },
        {
            "buffer" : 0,
            "byteLength" : 16854,
            "byteOffset" : 309524
        },
        {
            "buffer" : 0,
            "byteLength" : 10332,
            "byteOffset" : 326380
        },
        {
            "buffer" : 0,
            "byteLength" : 10332,
            "byteOffset" : 336712
        },
        {
            "buffer" : 0,
            "byteLength" : 6888,
            "byteOffset" : 347044
        },
        {
            "buffer" : 0,
            "byteLength" : 4050,
            "byteOffset" : 353932
        },
        {
            "buffer" : 0,
            "byteLength" : 2076944,
            "byteOffset" : 357984
        },
        {
            "buffer" : 0,
            "byteLength" : 252083,
            "byteOffset" : 2434928
        }
    ],
    "samplers" : [
        {
            "magFilter" : 9729,
            "minFilter" : 9987
        }
    ],
    "buffers" : [
        {
            "byteLength" : 2687012,
            "uri" : "data:application/octet-stream;base64,"
        }
    ]
}
