{
    "asset" : {
        "generator" : "Khronos glTF Blender I/O v1.8.19",
        "version" : "2.0"
    },
    "scene" : 0,
    "scenes" : [
        {
            "name" : "Scene",
            "nodes" : [
                0
            ]
        }
    ],
    "nodes" : [
        {
            "mesh" : 0,
            "name" : "Pebbles_black 80 short",
            "rotation" : [
                0.8277705907821655,
                0.49435606598854065,
                0.2562199532985687,
                0.06898725032806396
            ]
        }
    ],
    "materials" : [
        {
            "doubleSided" : true,
            "name" : "Pebbles_black",
            "normalTexture" : {
                "index" : 0,
                "scale" : 0.20000000298023224
            },
            "pbrMetallicRoughness" : {
                "baseColorTexture" : {
                    "index" : 1
                },
                "metallicFactor" : 0,
                "roughnessFactor" : 0.25454574823379517
            }
        }
    ],
    "meshes" : [
        {
            "name" : "Roundcube.1086",
            "primitives" : [
                {
                    "attributes" : {
                        "POSITION" : 0,
                        "NORMAL" : 1,
                        "TEXCOORD_0" : 2
                    },
                    "indices" : 3,
                    "material" : 0
                }
            ]
        }
    ],
    "textures" : [
        {
            "sampler" : 0,
            "source" : 0
        },
        {
            "sampler" : 0,
            "source" : 1
        }
    ],
    "images" : [
        {
            "bufferView" : 4,
            "mimeType" : "image/png",
            "name" : "TexturesCom_Stone_BaseSurface8_1x1_512_normal"
        },
        {
            "bufferView" : 5,
            "mimeType" : "image/jpeg",
            "name" : "DDD2927A-1133-4D70-BC40-29D41E631B01"
        }
    ],
    "accessors" : [
        {
            "bufferView" : 0,
            "componentType" : 5126,
            "count" : 41875,
            "max" : [
                0.13119854032993317,
                0.19933615624904633,
                0.532211184501648
            ],
            "min" : [
                -0.2631862461566925,
                -0.40819254517555237,
                -0.0988922044634819
            ],
            "type" : "VEC3"
        },
        {
            "bufferView" : 1,
            "componentType" : 5126,
            "count" : 41875,
            "type" : "VEC3"
        },
        {
            "bufferView" : 2,
            "componentType" : 5126,
            "count" : 41875,
            "type" : "VEC2"
        },
        {
            "bufferView" : 3,
            "componentType" : 5123,
            "count" : 192960,
            "type" : "SCALAR"
        }
    ],
    "bufferViews" : [
        {
            "buffer" : 0,
            "byteLength" : 502500,
            "byteOffset" : 0
        },
        {
            "buffer" : 0,
            "byteLength" : 502500,
            "byteOffset" : 502500
        },
        {
            "buffer" : 0,
            "byteLength" : 335000,
            "byteOffset" : 1005000
        },
        {
            "buffer" : 0,
            "byteLength" : 385920,
            "byteOffset" : 1340000
        },
        {
            "buffer" : 0,
            "byteLength" : 521528,
            "byteOffset" : 1725920
        },
        {
            "buffer" : 0,
            "byteLength" : 200460,
            "byteOffset" : 2247448
        }
    ],
    "samplers" : [
        {
            "magFilter" : 9729,
            "minFilter" : 9987
        }
    ],
    "buffers" : [
        {
            "byteLength" : 2447908,
            "uri" : "data:application/octet-stream;base64,"
        }
    ]
}
