{
    "asset" : {
        "generator" : "Khronos glTF Blender I/O v1.8.19",
        "version" : "2.0"
    },
    "extensionsUsed" : [
        "KHR_materials_clearcoat"
    ],
    "scene" : 0,
    "scenes" : [
        {
            "name" : "Scene",
            "nodes" : [
                0
            ]
        }
    ],
    "nodes" : [
        {
            "mesh" : 0,
            "name" : "Pebbles_mixed 80 short",
            "rotation" : [
                0.8277705907821655,
                0.49435606598854065,
                0.2562199532985687,
                0.06898725032806396
            ]
        }
    ],
    "materials" : [
        {
            "doubleSided" : true,
            "name" : "Pebbles_black",
            "normalTexture" : {
                "index" : 0,
                "scale" : 0.20000000298023224
            },
            "pbrMetallicRoughness" : {
                "baseColorTexture" : {
                    "index" : 1
                },
                "metallicFactor" : 0,
                "roughnessFactor" : 0.25454574823379517
            }
        },
        {
            "doubleSided" : true,
            "extensions" : {
                "KHR_materials_clearcoat" : {
                    "clearcoatFactor" : 2,
                    "clearcoatRoughnessFactor" : 0.029999999329447746
                }
            },
            "name" : "Pebbles_white",
            "normalTexture" : {
                "index" : 2
            },
            "pbrMetallicRoughness" : {
                "baseColorFactor" : [
                    0.800000011920929,
                    0.800000011920929,
                    0.800000011920929,
                    1
                ],
                "metallicFactor" : 0,
                "roughnessFactor" : 0.18636393547058105
            }
        }
    ],
    "meshes" : [
        {
            "name" : "Roundcube.790",
            "primitives" : [
                {
                    "attributes" : {
                        "POSITION" : 0,
                        "NORMAL" : 1,
                        "TEXCOORD_0" : 2
                    },
                    "indices" : 3,
                    "material" : 0
                },
                {
                    "attributes" : {
                        "POSITION" : 4,
                        "NORMAL" : 5,
                        "TEXCOORD_0" : 6
                    },
                    "indices" : 7,
                    "material" : 1
                }
            ]
        }
    ],
    "textures" : [
        {
            "sampler" : 0,
            "source" : 0
        },
        {
            "sampler" : 0,
            "source" : 1
        },
        {
            "sampler" : 0,
            "source" : 0
        }
    ],
    "images" : [
        {
            "bufferView" : 4,
            "mimeType" : "image/png",
            "name" : "TexturesCom_Stone_BaseSurface8_1x1_512_normal"
        },
        {
            "bufferView" : 5,
            "mimeType" : "image/jpeg",
            "name" : "DDD2927A-1133-4D70-BC40-29D41E631B01"
        }
    ],
    "accessors" : [
        {
            "bufferView" : 0,
            "componentType" : 5126,
            "count" : 21125,
            "max" : [
                0.1214824914932251,
                0.19933615624904633,
                0.5300499796867371
            ],
            "min" : [
                -0.2631862461566925,
                -0.40819254517555237,
                -0.0988922044634819
            ],
            "type" : "VEC3"
        },
        {
            "bufferView" : 1,
            "componentType" : 5126,
            "count" : 21125,
            "type" : "VEC3"
        },
        {
            "bufferView" : 2,
            "componentType" : 5126,
            "count" : 21125,
            "type" : "VEC2"
        },
        {
            "bufferView" : 3,
            "componentType" : 5123,
            "count" : 97344,
            "type" : "SCALAR"
        },
        {
            "bufferView" : 6,
            "componentType" : 5126,
            "count" : 20750,
            "max" : [
                0.13119854032993317,
                0.18349383771419525,
                0.532211184501648
            ],
            "min" : [
                -0.24705608189105988,
                -0.4061160981655121,
                -0.06841946393251419
            ],
            "type" : "VEC3"
        },
        {
            "bufferView" : 7,
            "componentType" : 5126,
            "count" : 20750,
            "type" : "VEC3"
        },
        {
            "bufferView" : 8,
            "componentType" : 5126,
            "count" : 20750,
            "type" : "VEC2"
        },
        {
            "bufferView" : 9,
            "componentType" : 5123,
            "count" : 95616,
            "type" : "SCALAR"
        }
    ],
    "bufferViews" : [
        {
            "buffer" : 0,
            "byteLength" : 253500,
            "byteOffset" : 0
        },
        {
            "buffer" : 0,
            "byteLength" : 253500,
            "byteOffset" : 253500
        },
        {
            "buffer" : 0,
            "byteLength" : 169000,
            "byteOffset" : 507000
        },
        {
            "buffer" : 0,
            "byteLength" : 194688,
            "byteOffset" : 676000
        },
        {
            "buffer" : 0,
            "byteLength" : 521528,
            "byteOffset" : 870688
        },
        {
            "buffer" : 0,
            "byteLength" : 200460,
            "byteOffset" : 1392216
        },
        {
            "buffer" : 0,
            "byteLength" : 249000,
            "byteOffset" : 1592676
        },
        {
            "buffer" : 0,
            "byteLength" : 249000,
            "byteOffset" : 1841676
        },
        {
            "buffer" : 0,
            "byteLength" : 166000,
            "byteOffset" : 2090676
        },
        {
            "buffer" : 0,
            "byteLength" : 191232,
            "byteOffset" : 2256676
        }
    ],
    "samplers" : [
        {
            "magFilter" : 9729,
            "minFilter" : 9987
        }
    ],
    "buffers" : [
        {
            "byteLength" : 2447908,
            "uri" : "data:application/octet-stream;base64,"
        }
    ]
}
