{
    "asset" : {
        "generator" : "Khronos glTF Blender I/O v1.8.19",
        "version" : "2.0"
    },
    "extensionsUsed" : [
        "KHR_materials_clearcoat"
    ],
    "scene" : 0,
    "scenes" : [
        {
            "name" : "Scene",
            "nodes" : [
                0
            ]
        }
    ],
    "nodes" : [
        {
            "mesh" : 0,
            "name" : "Pebbles_white 80 long",
            "rotation" : [
                0.2086848020553589,
                0.8515109419822693,
                -0.42809557914733887,
                0.21934950351715088
            ]
        }
    ],
    "materials" : [
        {
            "doubleSided" : true,
            "extensions" : {
                "KHR_materials_clearcoat" : {
                    "clearcoatFactor" : 2,
                    "clearcoatRoughnessFactor" : 0.029999999329447746
                }
            },
            "name" : "Pebbles_white",
            "normalTexture" : {
                "index" : 0
            },
            "pbrMetallicRoughness" : {
                "baseColorFactor" : [
                    0.800000011920929,
                    0.800000011920929,
                    0.800000011920929,
                    1
                ],
                "metallicFactor" : 0,
                "roughnessFactor" : 0.18636393547058105
            }
        }
    ],
    "meshes" : [
        {
            "name" : "Roundcube.001",
            "primitives" : [
                {
                    "attributes" : {
                        "POSITION" : 0,
                        "NORMAL" : 1,
                        "TEXCOORD_0" : 2
                    },
                    "indices" : 3,
                    "material" : 0
                }
            ]
        }
    ],
    "textures" : [
        {
            "sampler" : 0,
            "source" : 0
        }
    ],
    "images" : [
        {
            "bufferView" : 4,
            "mimeType" : "image/png",
            "name" : "TexturesCom_Stone_BaseSurface8_1x1_512_normal"
        }
    ],
    "accessors" : [
        {
            "bufferView" : 0,
            "componentType" : 5126,
            "count" : 62125,
            "max" : [
                0.6547487378120422,
                0.6594157218933105,
                0.46381276845932007
            ],
            "min" : [
                -0.22079522907733917,
                -0.11882954835891724,
                -0.09963735938072205
            ],
            "type" : "VEC3"
        },
        {
            "bufferView" : 1,
            "componentType" : 5126,
            "count" : 62125,
            "type" : "VEC3"
        },
        {
            "bufferView" : 2,
            "componentType" : 5126,
            "count" : 62125,
            "type" : "VEC2"
        },
        {
            "bufferView" : 3,
            "componentType" : 5123,
            "count" : 286272,
            "type" : "SCALAR"
        }
    ],
    "bufferViews" : [
        {
            "buffer" : 0,
            "byteLength" : 745500,
            "byteOffset" : 0
        },
        {
            "buffer" : 0,
            "byteLength" : 745500,
            "byteOffset" : 745500
        },
        {
            "buffer" : 0,
            "byteLength" : 497000,
            "byteOffset" : 1491000
        },
        {
            "buffer" : 0,
            "byteLength" : 572544,
            "byteOffset" : 1988000
        },
        {
            "buffer" : 0,
            "byteLength" : 521528,
            "byteOffset" : 2560544
        }
    ],
    "samplers" : [
        {
            "magFilter" : 9729,
            "minFilter" : 9987
        }
    ],
    "buffers" : [
        {
            "byteLength" : 3082072,
            "uri" : "data:application/octet-stream;base64,"
        }
    ]
}
