{
    "asset" : {
        "generator" : "Khronos glTF Blender I/O v1.8.19",
        "version" : "2.0"
    },
    "extensionsUsed" : [
        "KHR_materials_clearcoat"
    ],
    "scene" : 0,
    "scenes" : [
        {
            "name" : "Scene",
            "nodes" : [
                0,
                1
            ]
        }
    ],
    "nodes" : [
        {
            "mesh" : 0,
            "name" : "Cube.042"
        },
        {
            "mesh" : 1,
            "name" : "Cube.043"
        }
    ],
    "materials" : [
        {
            "doubleSided" : true,
            "extensions" : {
                "KHR_materials_clearcoat" : {
                    "clearcoatFactor" : 2,
                    "clearcoatRoughnessFactor" : 0.029999999329447746
                }
            },
            "name" : "Granite Black_PBR",
            "pbrMetallicRoughness" : {
                "baseColorTexture" : {
                    "index" : 0
                },
                "metallicFactor" : 0,
                "roughnessFactor" : 0.07272729277610779
            }
        }
    ],
    "meshes" : [
        {
            "name" : "Cube.042",
            "primitives" : [
                {
                    "attributes" : {
                        "POSITION" : 0,
                        "NORMAL" : 1,
                        "TEXCOORD_0" : 2
                    },
                    "indices" : 3,
                    "material" : 0
                }
            ]
        },
        {
            "name" : "Cube.043",
            "primitives" : [
                {
                    "attributes" : {
                        "POSITION" : 4,
                        "NORMAL" : 5,
                        "TEXCOORD_0" : 6
                    },
                    "indices" : 7,
                    "material" : 0
                }
            ]
        }
    ],
    "textures" : [
        {
            "sampler" : 0,
            "source" : 0
        }
    ],
    "images" : [
        {
            "bufferView" : 4,
            "mimeType" : "image/jpeg",
            "name" : "DDD2927A-1133-4D70-BC40-29D41E631B01"
        }
    ],
    "accessors" : [
        {
            "bufferView" : 0,
            "componentType" : 5126,
            "count" : 793,
            "max" : [
                0.06499999761581421,
                0.2016666680574417,
                0.06499999761581421
            ],
            "min" : [
                -0.06499999761581421,
                0,
                -0.06499999761581421
            ],
            "type" : "VEC3"
        },
        {
            "bufferView" : 1,
            "componentType" : 5126,
            "count" : 793,
            "type" : "VEC3"
        },
        {
            "bufferView" : 2,
            "componentType" : 5126,
            "count" : 793,
            "type" : "VEC2"
        },
        {
            "bufferView" : 3,
            "componentType" : 5123,
            "count" : 1836,
            "type" : "SCALAR"
        },
        {
            "bufferView" : 5,
            "componentType" : 5126,
            "count" : 814,
            "max" : [
                0.06499999761581421,
                0.2200000137090683,
                0.06499999761581421
            ],
            "min" : [
                -0.06499999761581421,
                0.19083738327026367,
                -0.06499999761581421
            ],
            "type" : "VEC3"
        },
        {
            "bufferView" : 6,
            "componentType" : 5126,
            "count" : 814,
            "type" : "VEC3"
        },
        {
            "bufferView" : 7,
            "componentType" : 5126,
            "count" : 814,
            "type" : "VEC2"
        },
        {
            "bufferView" : 8,
            "componentType" : 5123,
            "count" : 1836,
            "type" : "SCALAR"
        }
    ],
    "bufferViews" : [
        {
            "buffer" : 0,
            "byteLength" : 9516,
            "byteOffset" : 0
        },
        {
            "buffer" : 0,
            "byteLength" : 9516,
            "byteOffset" : 9516
        },
        {
            "buffer" : 0,
            "byteLength" : 6344,
            "byteOffset" : 19032
        },
        {
            "buffer" : 0,
            "byteLength" : 3672,
            "byteOffset" : 25376
        },
        {
            "buffer" : 0,
            "byteLength" : 200460,
            "byteOffset" : 29048
        },
        {
            "buffer" : 0,
            "byteLength" : 9768,
            "byteOffset" : 229508
        },
        {
            "buffer" : 0,
            "byteLength" : 9768,
            "byteOffset" : 239276
        },
        {
            "buffer" : 0,
            "byteLength" : 6512,
            "byteOffset" : 249044
        },
        {
            "buffer" : 0,
            "byteLength" : 3672,
            "byteOffset" : 255556
        }
    ],
    "samplers" : [
        {
            "magFilter" : 9729,
            "minFilter" : 9987
        }
    ],
    "buffers" : [
        {
            "byteLength" : 259228,
            "uri" : "data:application/octet-stream;base64,"
        }
    ]
}
