{
    "asset" : {
        "generator" : "Khronos glTF Blender I/O v1.8.19",
        "version" : "2.0"
    },
    "extensionsUsed" : [
        "KHR_materials_clearcoat"
    ],
    "scene" : 0,
    "scenes" : [
        {
            "name" : "Scene",
            "nodes" : [
                0
            ]
        }
    ],
    "nodes" : [
        {
            "mesh" : 0,
            "name" : "Cube.044"
        }
    ],
    "materials" : [
        {
            "doubleSided" : true,
            "extensions" : {
                "KHR_materials_clearcoat" : {
                    "clearcoatFactor" : 2,
                    "clearcoatRoughnessFactor" : 0.029999999329447746
                }
            },
            "name" : "Granite Black_PBR",
            "pbrMetallicRoughness" : {
                "baseColorTexture" : {
                    "index" : 0
                },
                "metallicFactor" : 0,
                "roughnessFactor" : 0.07272729277610779
            }
        },
        {
            "doubleSided" : true,
            "name" : "Granite White_PBR",
            "normalTexture" : {
                "index" : 1
            },
            "pbrMetallicRoughness" : {
                "baseColorTexture" : {
                    "index" : 2
                },
                "metallicFactor" : 0,
                "roughnessFactor" : 0.6000000238418579
            }
        }
    ],
    "meshes" : [
        {
            "name" : "Cube.044",
            "primitives" : [
                {
                    "attributes" : {
                        "POSITION" : 0,
                        "NORMAL" : 1,
                        "TEXCOORD_0" : 2
                    },
                    "indices" : 3,
                    "material" : 0
                },
                {
                    "attributes" : {
                        "POSITION" : 4,
                        "NORMAL" : 5,
                        "TEXCOORD_0" : 6
                    },
                    "indices" : 7,
                    "material" : 1
                }
            ]
        }
    ],
    "textures" : [
        {
            "sampler" : 0,
            "source" : 0
        },
        {
            "sampler" : 0,
            "source" : 1
        },
        {
            "sampler" : 0,
            "source" : 2
        }
    ],
    "images" : [
        {
            "bufferView" : 4,
            "mimeType" : "image/jpeg",
            "name" : "DDD2927A-1133-4D70-BC40-29D41E631B01"
        },
        {
            "bufferView" : 9,
            "mimeType" : "image/png",
            "name" : "TexturesCom_Stone_BaseSurface1_1K_normal"
        },
        {
            "bufferView" : 10,
            "mimeType" : "image/jpeg",
            "name" : "concrete light"
        }
    ],
    "accessors" : [
        {
            "bufferView" : 0,
            "componentType" : 5126,
            "count" : 3230,
            "max" : [
                0.08000002056360245,
                0.19999998807907104,
                0.08000002056360245
            ],
            "min" : [
                -0.07999999821186066,
                0,
                -0.08000001311302185
            ],
            "type" : "VEC3"
        },
        {
            "bufferView" : 1,
            "componentType" : 5126,
            "count" : 3230,
            "type" : "VEC3"
        },
        {
            "bufferView" : 2,
            "componentType" : 5126,
            "count" : 3230,
            "type" : "VEC2"
        },
        {
            "bufferView" : 3,
            "componentType" : 5123,
            "count" : 8184,
            "type" : "SCALAR"
        },
        {
            "bufferView" : 5,
            "componentType" : 5126,
            "count" : 1349,
            "max" : [
                0.04516766965389252,
                0.1993749886751175,
                0.045167677104473114
            ],
            "min" : [
                -0.04516766965389252,
                0.05324969440698624,
                -0.045167677104473114
            ],
            "type" : "VEC3"
        },
        {
            "bufferView" : 6,
            "componentType" : 5126,
            "count" : 1349,
            "type" : "VEC3"
        },
        {
            "bufferView" : 7,
            "componentType" : 5126,
            "count" : 1349,
            "type" : "VEC2"
        },
        {
            "bufferView" : 8,
            "componentType" : 5123,
            "count" : 3126,
            "type" : "SCALAR"
        }
    ],
    "bufferViews" : [
        {
            "buffer" : 0,
            "byteLength" : 38760,
            "byteOffset" : 0
        },
        {
            "buffer" : 0,
            "byteLength" : 38760,
            "byteOffset" : 38760
        },
        {
            "buffer" : 0,
            "byteLength" : 25840,
            "byteOffset" : 77520
        },
        {
            "buffer" : 0,
            "byteLength" : 16368,
            "byteOffset" : 103360
        },
        {
            "buffer" : 0,
            "byteLength" : 200460,
            "byteOffset" : 119728
        },
        {
            "buffer" : 0,
            "byteLength" : 16188,
            "byteOffset" : 320188
        },
        {
            "buffer" : 0,
            "byteLength" : 16188,
            "byteOffset" : 336376
        },
        {
            "buffer" : 0,
            "byteLength" : 10792,
            "byteOffset" : 352564
        },
        {
            "buffer" : 0,
            "byteLength" : 6252,
            "byteOffset" : 363356
        },
        {
            "buffer" : 0,
            "byteLength" : 2076944,
            "byteOffset" : 369608
        },
        {
            "buffer" : 0,
            "byteLength" : 252083,
            "byteOffset" : 2446552
        }
    ],
    "samplers" : [
        {
            "magFilter" : 9729,
            "minFilter" : 9987
        }
    ],
    "buffers" : [
        {
            "byteLength" : 2698636,
            "uri" : "data:application/octet-stream;base64,"
        }
    ]
}
