{
    "asset" : {
        "generator" : "Khronos glTF Blender I/O v1.8.19",
        "version" : "2.0"
    },
    "extensionsUsed" : [
        "KHR_materials_clearcoat"
    ],
    "scene" : 0,
    "scenes" : [
        {
            "name" : "Scene",
            "nodes" : [
                0
            ]
        }
    ],
    "nodes" : [
        {
            "mesh" : 0,
            "name" : "Circle"
        }
    ],
    "materials" : [
        {
            "doubleSided" : true,
            "extensions" : {
                "KHR_materials_clearcoat" : {
                    "clearcoatFactor" : 2,
                    "clearcoatRoughnessFactor" : 0.029999999329447746
                }
            },
            "name" : "Granite Black_PBR",
            "pbrMetallicRoughness" : {
                "baseColorTexture" : {
                    "index" : 0
                },
                "metallicFactor" : 0,
                "roughnessFactor" : 0.07272729277610779
            }
        },
        {
            "doubleSided" : true,
            "name" : "Granite White_PBR",
            "normalTexture" : {
                "index" : 1
            },
            "pbrMetallicRoughness" : {
                "baseColorTexture" : {
                    "index" : 2
                },
                "metallicFactor" : 0,
                "roughnessFactor" : 0.6000000238418579
            }
        }
    ],
    "meshes" : [
        {
            "name" : "Circle",
            "primitives" : [
                {
                    "attributes" : {
                        "POSITION" : 0,
                        "NORMAL" : 1,
                        "TEXCOORD_0" : 2
                    },
                    "indices" : 3,
                    "material" : 0
                },
                {
                    "attributes" : {
                        "POSITION" : 4,
                        "NORMAL" : 5,
                        "TEXCOORD_0" : 6
                    },
                    "indices" : 7,
                    "material" : 1
                }
            ]
        }
    ],
    "textures" : [
        {
            "sampler" : 0,
            "source" : 0
        },
        {
            "sampler" : 0,
            "source" : 1
        },
        {
            "sampler" : 0,
            "source" : 2
        }
    ],
    "images" : [
        {
            "bufferView" : 4,
            "mimeType" : "image/jpeg",
            "name" : "DDD2927A-1133-4D70-BC40-29D41E631B01"
        },
        {
            "bufferView" : 9,
            "mimeType" : "image/png",
            "name" : "TexturesCom_Stone_BaseSurface1_1K_normal"
        },
        {
            "bufferView" : 10,
            "mimeType" : "image/jpeg",
            "name" : "concrete light"
        }
    ],
    "accessors" : [
        {
            "bufferView" : 0,
            "componentType" : 5126,
            "count" : 2436,
            "max" : [
                0.05000074580311775,
                0.29951271414756775,
                0.049999989569187164
            ],
            "min" : [
                -0.04999925568699837,
                -5.112247890792787e-06,
                -0.050000015646219254
            ],
            "type" : "VEC3"
        },
        {
            "bufferView" : 1,
            "componentType" : 5126,
            "count" : 2436,
            "type" : "VEC3"
        },
        {
            "bufferView" : 2,
            "componentType" : 5126,
            "count" : 2436,
            "type" : "VEC2"
        },
        {
            "bufferView" : 3,
            "componentType" : 5123,
            "count" : 11418,
            "type" : "SCALAR"
        },
        {
            "bufferView" : 5,
            "componentType" : 5126,
            "count" : 176,
            "max" : [
                0.02866695076227188,
                0.2992066442966461,
                0.028667403385043144
            ],
            "min" : [
                -0.028666945174336433,
                0.11334829777479172,
                -0.028667403385043144
            ],
            "type" : "VEC3"
        },
        {
            "bufferView" : 6,
            "componentType" : 5126,
            "count" : 176,
            "type" : "VEC3"
        },
        {
            "bufferView" : 7,
            "componentType" : 5126,
            "count" : 176,
            "type" : "VEC2"
        },
        {
            "bufferView" : 8,
            "componentType" : 5123,
            "count" : 666,
            "type" : "SCALAR"
        }
    ],
    "bufferViews" : [
        {
            "buffer" : 0,
            "byteLength" : 29232,
            "byteOffset" : 0
        },
        {
            "buffer" : 0,
            "byteLength" : 29232,
            "byteOffset" : 29232
        },
        {
            "buffer" : 0,
            "byteLength" : 19488,
            "byteOffset" : 58464
        },
        {
            "buffer" : 0,
            "byteLength" : 22836,
            "byteOffset" : 77952
        },
        {
            "buffer" : 0,
            "byteLength" : 200460,
            "byteOffset" : 100788
        },
        {
            "buffer" : 0,
            "byteLength" : 2112,
            "byteOffset" : 301248
        },
        {
            "buffer" : 0,
            "byteLength" : 2112,
            "byteOffset" : 303360
        },
        {
            "buffer" : 0,
            "byteLength" : 1408,
            "byteOffset" : 305472
        },
        {
            "buffer" : 0,
            "byteLength" : 1332,
            "byteOffset" : 306880
        },
        {
            "buffer" : 0,
            "byteLength" : 2076944,
            "byteOffset" : 308212
        },
        {
            "buffer" : 0,
            "byteLength" : 252083,
            "byteOffset" : 2385156
        }
    ],
    "samplers" : [
        {
            "magFilter" : 9729,
            "minFilter" : 9987
        }
    ],
    "buffers" : [
        {
            "byteLength" : 2637240,
            "uri" : "data:application/octet-stream;base64,"
        }
    ]
}
